<svg xmlns="http://www.w3.org/2000/svg" version="1.1" viewBox="10 300 2000 190" >
<path transform="translate(583,315)" d="m0 0h109l3 1v119l-7 8-9 9-1 2h-2l-2 4-9 9-7 8-6 7-6 5-58 1h-25l-30-1-1-1-1-25v-93l5-6h2l2-4 21-21 1-2h2l2-4 15-15zm3 8v43l57-1 10-10v-2l3-1 7-8 19-19-1-2zm-8 7-14 14v2l-4 2-7 8-8 8v1h34l1-6v-24l-1-5zm108 0-10 10-7 8-16 17-4 5-1 8v51l6 1 33-1v-99zm-146 43-1 5v93l2 2 7-7 7-8 7-7v-2h2l7-8 8-8 1-59-1-1zm48 0-2 1v56l54-1v-56zm-2 64-4 1-7 8-2 4h-2l-7 8-14 15-4 4v2l94 1v-43zm62 0v36l4-2 9-10v-2h2l9-11 10-10v-1z"/>
<path transform="translate(731,331)" d="m0 0h12l3 1 1 11 10-8 7-3 5-1h9l12 3 8 5 5 4 7 11 4 10 2 15-1 25-1 6h-2l-1 9h-2l-1 3h-2l-1 3h-2v2l-5 1v2h-3v2l-11 1-1-1-2 1h-13l-10-3-4-2-3 1-2 5v23l1 10-3 2h-15l-2-1v-136zm36 15v1h9v-1zm-2 1m13 0m-4 2-7 1-1 3h-2v-2l-5 2-5 6-1 5-1 4 2 1-3 16h-2l-1 10-1 3 5 10 8 7 9 3 10-1 8-5 6-7 3-7 1-5v-23l-3-10-7-9-3-2zm-20 6m-1 1m-3 5m1 7-1 8 2-2 1-5zm-2 14 1 2z"/>
<path transform="translate(871,331)" d="m0 0h14l10 2 9 4 8 7 5 13v63h2v7l2 5-1 1h-15l-3-1-2-4v-8l-14 8-11 4-7 1h-10l-9-2-10-6-6-8-3-8v-9l4-11 6-7 12-6 39-7 7-3-2-11-5-5-5-1-1-1-1 2-3 1-13 1-6 4h-3l-2 4h-2l-1 3-4 2-10-1-6-2 1-9 6-9 8-7 10-4zm-2 15v1h13v-1zm-4 1m-3 1m-6 4m3 1m-5 2-1 2h2zm42 28-14 3 4 2-8 1-2 1-2-2-10 1-4 2 4 1-6 1-5 5v2h-4l1 9 5 6 8 3h10l12-4 8-6 4-7 1-4v-14zm-19 4v1h5v-1z"/>
<path transform="translate(1037,295)" d="m0 0h15l2 2 1 72 19-19 7-8 8-7 4-4h20v3l-27 27 1 4 6-7 5-5h2l1-3 3 2-16 16-5 4-3 1 15 23 11 17 11 16 1 3-1 1h-19l-4-5-8-12-14-22-6-9h-4l-4 4 2 3 2-3-1 20-2 1-1-3h-3v17l1 6-2 3h-16l-2-2v-135zm47 67-8 7h3l1-1 2 2 2-2 1-6zm-29 28 1 2 1-2zm1 2m2 3 1 2z"/>
<path transform="translate(977,331)" d="m0 0h8l14 3 10 6 7 8 5 11 1 4-17 2-5-8-4-5-4-2h-2l-2 3v-2h-10l-5 4-4 2-4 6-3 11-1 8-3 2v11l-1 6 6 9 5 4 10 3 11-1 8-4 4-5 2-5 1-6h11l7 2-2 11 2 1-3 1v10l-1 2-3 1v2l-4 1-1 3-4 2h-4v2l-5 1-7-2h-15l-9-2-12-6-9-9-6-12-3-13v-18l4-16 6-10 5-5 8-6 11-4zm-1 15v1h10v-1zm12 1m5 2m2 1m-25 2m-3 1-2 4 4-4zm-3 4-2 2 1 3 2-5zm-5 12-1 2h2zm-4 2m3 2 1 3 1-3z"/>
<path transform="translate(1191,300)" d="m0 0 3 1v30h15l2 5v10h-17l1 69 14 1 2 1 2 11-1 5h-18l-6-2-9-7-2-5-1-8v-65h-11l-1-1v-12l3-2h9v-21l3-3z"/>
<path transform="translate(1132,331)" d="m0 0h16l2 4v90l1 2-3 7-15-1-1-1-1-13v-82z"/>
<path transform="translate(1132,295)" d="m0 0 17 1 1 1v19l-1 1h-15l-3-1v-20z"/>
<path transform="translate(917,360)" d="m0 0h1v12l2 1h-2v4l2 1-1 1h1v6l-1 1 1 3h-2l-1 2z"/>
<path transform="translate(1112,340)" d="m0 0h2l-2 4-7 7-1-4 3-1 3-4h2z"/>
<path transform="translate(817,404)" d="m0 0 1 3-5 10h-2l1-4z"/>
<path transform="translate(897,425)" d="m0 0h3v3l-5 1z"/>
<path transform="translate(758,357)" d="m0 0 1 2-2 5-1-4z"/>
<path transform="translate(1090,357)" d="m0 0 2 1-3 4-2-1z"/>
<path transform="translate(880,431)" d="m0 0h3v2h-5z"/>
<path transform="translate(762,353)" d="m0 0v3h-3z"/>
<path transform="translate(889,429)" d="m0 0 4 1-5 1z"/>
<path transform="translate(1093,354)" d="m0 0h2l-1 3-2-1z"/>
<path transform="translate(1202,347)" d="m0 0h5v1h-5z"/>
<path transform="translate(749,441)" d="m0 0h3l-1 2z"/>
<path transform="translate(854,400)" d="m0 0v3z"/>
<path transform="translate(957,397)" d="m0 0 1 4z"/>
<path transform="translate(1097,350)" d="m0 0 2 1-2 1z"/>
<path transform="translate(1101,346)" d="m0 0 2 1-2 1z"/>
<path transform="translate(749,439)" d="m0 0 2 1z"/>
<path transform="translate(750,436)" d="m0 0"/>
<path transform="translate(875,432)" d="m0 0 2 1z"/>
<path transform="translate(1020,416)" d="m0 0"/>
<path transform="translate(1060,410)" d="m0 0"/>
<path transform="translate(917,407)" d="m0 0"/>
<path transform="translate(917,401)" d="m0 0"/>
<path transform="translate(749,398)" d="m0 0"/>
<path transform="translate(917,397)" d="m0 0"/>
<path transform="translate(856,398)" d="m0 0 2 1z"/>
<path transform="translate(917,393)" d="m0 0"/>
<path transform="translate(919,390)" d="m0 0"/>
<path transform="translate(1066,386)" d="m0 0"/>
<path transform="translate(1055,366)" d="m0 0"/>
<path transform="translate(755,364)" d="m0 0"/>
<path transform="translate(767,351)" d="m0 0"/>
<path transform="translate(1060,338)" d="m0 0"/>
<path transform="translate(750,444)" d="m0 0"/>
<path transform="translate(678,439)" d="m0 0"/>
<path transform="translate(679,438)" d="m0 0"/>
<path transform="translate(993,435)" d="m0 0"/>
<path transform="translate(881,434)" d="m0 0"/>
<path transform="translate(785,434)" d="m0 0"/>
<path transform="translate(750,434)" d="m0 0"/>
<path transform="translate(884,433)" d="m0 0"/>
<path transform="translate(886,430)" d="m0 0"/>
<path transform="translate(883,430)" d="m0 0"/>
<path transform="translate(897,429)" d="m0 0"/>
<path transform="translate(754,428)" d="m0 0"/>
<path transform="translate(894,426)" d="m0 0"/>
<path transform="translate(1016,424)" d="m0 0"/>
<path transform="translate(898,424)" d="m0 0"/>
<path transform="translate(1019,418)" d="m0 0"/>
<path transform="translate(1056,409)" d="m0 0"/>
<path transform="translate(917,405)" d="m0 0"/>
<path transform="translate(863,393)" d="m0 0"/>
<path transform="translate(1059,389)" d="m0 0"/>
<path transform="translate(1067,388)" d="m0 0"/>
<path transform="translate(895,386)" d="m0 0"/>
<path transform="translate(1065,385)" d="m0 0"/>
<path transform="translate(959,385)" d="m0 0"/>
<path transform="translate(894,385)" d="m0 0"/>
<path transform="translate(1081,366)" d="m0 0"/>
<path transform="translate(1055,362)" d="m0 0"/>
<path transform="translate(917,358)" d="m0 0"/>
<path transform="translate(1096,352)" d="m0 0"/>
<path transform="translate(996,352)" d="m0 0"/>
<path transform="translate(769,351)" d="m0 0"/>
<path transform="translate(783,350)" d="m0 0"/>
<path transform="translate(1195,349)" d="m0 0"/>
<path transform="translate(1100,348)" d="m0 0"/>
<path transform="translate(1200,347)" d="m0 0"/>
<path transform="translate(1104,344)" d="m0 0"/>
<path transform="translate(1108,340)" d="m0 0"/>
</svg>