<?xml version="1.0"?>
<svg width="500" height="200" xmlns="http://www.w3.org/2000/svg" xmlns:svg="http://www.w3.org/2000/svg">
 <!-- Accessibility -->
 <title>Packit Logo</title>
 <desc>A minimalist logo featuring a complex 3D cubic lattice grid next to the word &quot;packit&quot; in clean sans-serif typography.</desc>
 <!-- Definitions for minimal styling -->
 <defs>
  <!-- Shadow filter for text (subtle) -->
  <filter height="140%" id="textShadow" width="140%" x="-20%" y="-20%">
   <feGaussianBlur in="SourceAlpha" stdDeviation="1"/>
   <feOffset dx="1" dy="1" result="offsetblur"/>
   <feFlood flood-color="#000000" flood-opacity="0.2"/>
   <feComposite in2="offsetblur" operator="in"/>
   <feMerge>
    <feMergeNode/>
    <feMergeNode in="SourceGraphic"/>
   </feMerge>
  </filter>
 </defs>
 <!-- Background removed - was: <rect width="500" height="200" fill="#000000"/> -->
 <!-- New Cube Icon -->
 <!-- Main Text, clean sans-serif -->
 <g class="layer" display="inline">
  <title>Layer 1</title>
  <g id="svg_1" transform="translate(129 60) matrix(0.0795536 0 0 0.0834597 4.034 19.0343)">
   <path d="m511.53,8.38c-0.13,-0.57 -0.13,-1.19 -0.36,-1.75c-1.09,-2.64 -3.18,-4.73 -5.83,-5.82c-0.55,-0.23 -1.15,-0.21 -1.75,-0.36c-0.72,-0.15 -1.45,-0.45 -2.26,-0.45l-341.33,0c-0.62,0 -1.17,0.26 -1.77,0.36c-0.77,0.13 -1.56,0.15 -2.28,0.45c-1.33,0.56 -2.5,1.32 -3.5,2.33l-149.33,149.33c-0.09,0.08 -0.11,0.21 -0.22,0.3c-0.85,0.92 -1.6,1.96 -2.09,3.13c-0.53,1.35 -0.81,2.73 -0.81,4.14l0,341.27c0,1.41 0.28,2.82 0.83,4.12c0.3,0.7 0.81,1.24 1.24,1.86c0.36,0.53 0.58,1.1 1.04,1.57c0.37,0.35 0.81,0.5 1.2,0.79c0.72,0.56 1.43,1.16 2.28,1.5c1.3,0.57 2.69,0.85 4.08,0.85l341.33,0c1.39,0 2.77,-0.28 4.07,-0.83c1.18,-0.49 2.22,-1.22 3.14,-2.09c0.09,-0.09 0.21,-0.11 0.32,-0.22l149.33,-149.33c0.99,-0.98 1.78,-2.18 2.31,-3.48c0.3,-0.74 0.34,-1.51 0.47,-2.3c0.1,-0.58 0.36,-1.13 0.36,-1.75l0,-341.33c0,-0.81 -0.3,-1.54 -0.47,-2.29zm-362.2,28.04l0,112.91l-112.91,0l112.91,-112.91zm-128,134.25l128,0l0,176.91l-128,128l0,-304.91zm320,320l-304.91,0l128,-128l176.91,0l0,128zm0,-149.34l-170.66,0l0,-170.66l170.66,0l0,170.66zm6.25,-192l-176.91,0l0,-128l304.91,0l-128,128zm15.09,326.25l0,-112.91l112.91,0l-112.91,112.91zm128,-134.25l-128,0l0,-176.91l128,-128l0,304.91z" fill="#000000" id="svg_2"/>
  </g>
  <text fill="#000000" filter="url(#textShadow)" font-family="&#x27;Arial&#x27;, sans-serif" font-size="47.45" font-weight="400" id="svg_3" text-anchor="middle" x="241.5" y="108">packit</text>
  <path fill="#FF0000" id="svg_4" stroke="#000000" stroke-width="5" transform="scale(1 1)"/>
 </g>
</svg>